# xmcd
# 
# Track frame offsets:
#     150
#     30065
#     50972
#     79490
#     129825
#     153720
# 
# Disc length: 2215
# 
# Revision: 0
# Processed by: cddbd v1.5.2PL0 Copyright (c) Steve Scherf et al.
# Submitted via: BonkEnc v1.0.8
# 
DISCID=4608a506
DTITLE=宮野弘紀 - Earl Klugh - Hotel California - Super Guitar Duo]
DYEAR=1983
DGENRE=Fusion
TTITLE0=Mrs. Robinson
TTITLE1=Honestly
TTITLE2=Blues for Earl Klugh
TTITLE3=Hotel California
TTITLE4=Poinciana
TTITLE5=Arthur's Theme
EXTD=
EXTT0=
EXTT1=
EXTT2=
EXTT3=
EXTT4=
EXTT5=
PLAYORDER=
